<mxfile host="app.diagrams.net" modified="2022-02-10T07:34:20.887Z" agent="5.0 (Windows NT 10.0; Win64; x64) AppleWebKit/537.36 (KHTML, like Gecko) Chrome/98.0.4758.82 Safari/537.36" etag="OQ0KcRJ_wssC2lr3FybE" version="16.4.7" type="github">
  <diagram id="chNzZVGyo9SPdtNRLmo0" name="Page-1">
    <mxGraphModel dx="2522" dy="762" grid="1" gridSize="10" guides="1" tooltips="1" connect="1" arrows="1" fold="1" page="1" pageScale="1" pageWidth="1100" pageHeight="850" math="0" shadow="0">
      <root>
        <mxCell id="0" />
        <mxCell id="1" parent="0" />
        <mxCell id="sQp2Zh3F2BZOGlov7ECM-1" value="" style="endArrow=none;dashed=1;html=1;strokeWidth=5;dashPattern=1 4;strokeColor=#D9D9D9;startArrow=none;" parent="1" edge="1" source="gvp6AJLyiE2rmEpr4Blh-25">
          <mxGeometry width="50" height="50" relative="1" as="geometry">
            <mxPoint x="-220" y="372" as="sourcePoint" />
            <mxPoint x="860" y="372" as="targetPoint" />
          </mxGeometry>
        </mxCell>
        <mxCell id="gvp6AJLyiE2rmEpr4Blh-20" value="" style="endArrow=none;dashed=1;html=1;strokeWidth=5;dashPattern=1 4;strokeColor=#D9D9D9;exitX=0.5;exitY=1;exitDx=0;exitDy=0;" edge="1" parent="1">
          <mxGeometry width="50" height="50" relative="1" as="geometry">
            <mxPoint x="119.5" y="300" as="sourcePoint" />
            <mxPoint x="119.5" y="700" as="targetPoint" />
          </mxGeometry>
        </mxCell>
        <mxCell id="gvp6AJLyiE2rmEpr4Blh-21" value="" style="endArrow=none;dashed=1;html=1;strokeWidth=5;dashPattern=1 4;strokeColor=#D9D9D9;exitX=0.5;exitY=1;exitDx=0;exitDy=0;" edge="1" parent="1">
          <mxGeometry width="50" height="50" relative="1" as="geometry">
            <mxPoint x="374.5" y="300" as="sourcePoint" />
            <mxPoint x="374.5" y="700" as="targetPoint" />
          </mxGeometry>
        </mxCell>
        <mxCell id="gvp6AJLyiE2rmEpr4Blh-22" value="" style="endArrow=none;dashed=1;html=1;strokeWidth=5;dashPattern=1 4;strokeColor=#D9D9D9;exitX=0.5;exitY=1;exitDx=0;exitDy=0;" edge="1" parent="1">
          <mxGeometry width="50" height="50" relative="1" as="geometry">
            <mxPoint x="624.5" y="300" as="sourcePoint" />
            <mxPoint x="624.5" y="700" as="targetPoint" />
          </mxGeometry>
        </mxCell>
        <mxCell id="gvp6AJLyiE2rmEpr4Blh-4" value="" style="endArrow=none;dashed=1;html=1;strokeWidth=5;dashPattern=1 4;strokeColor=#D9D9D9;exitX=0.5;exitY=1;exitDx=0;exitDy=0;" edge="1" parent="1" source="sQp2Zh3F2BZOGlov7ECM-13">
          <mxGeometry width="50" height="50" relative="1" as="geometry">
            <mxPoint x="-210" y="520" as="sourcePoint" />
            <mxPoint x="-135" y="700" as="targetPoint" />
          </mxGeometry>
        </mxCell>
        <mxCell id="sQp2Zh3F2BZOGlov7ECM-8" value="V-20220123&lt;br&gt;hash:48a9io" style="rounded=0;whiteSpace=wrap;html=1;strokeWidth=5;fillColor=#67AB9F;" parent="1" vertex="1">
          <mxGeometry x="-195" y="110" width="120" height="60" as="geometry" />
        </mxCell>
        <mxCell id="sQp2Zh3F2BZOGlov7ECM-9" value="&lt;span style=&quot;color: rgb(0 , 0 , 0)&quot;&gt;V-20220130&lt;br&gt;&lt;/span&gt;&lt;span style=&quot;color: rgb(0 , 0 , 0)&quot;&gt;hash:89yh75&lt;/span&gt;&lt;span style=&quot;color: rgb(0 , 0 , 0)&quot;&gt;&lt;br&gt;&lt;/span&gt;" style="rounded=0;whiteSpace=wrap;html=1;strokeWidth=5;fillColor=#e3c800;strokeColor=#330000;fontColor=#ffffff;" parent="1" vertex="1">
          <mxGeometry x="60" y="110" width="120" height="60" as="geometry" />
        </mxCell>
        <mxCell id="sQp2Zh3F2BZOGlov7ECM-12" style="edgeStyle=orthogonalEdgeStyle;curved=1;rounded=0;orthogonalLoop=1;jettySize=auto;html=1;entryX=0;entryY=0.5;entryDx=0;entryDy=0;endArrow=none;endFill=0;strokeWidth=5;" parent="1" source="sQp2Zh3F2BZOGlov7ECM-13" target="sQp2Zh3F2BZOGlov7ECM-20" edge="1">
          <mxGeometry relative="1" as="geometry" />
        </mxCell>
        <mxCell id="sQp2Zh3F2BZOGlov7ECM-13" value="" style="ellipse;whiteSpace=wrap;html=1;aspect=fixed;strokeColor=#330000;fillColor=#DAE8FC;strokeWidth=5;" parent="1" vertex="1">
          <mxGeometry x="-160" y="250" width="50" height="50" as="geometry" />
        </mxCell>
        <mxCell id="sQp2Zh3F2BZOGlov7ECM-14" style="edgeStyle=orthogonalEdgeStyle;curved=1;rounded=0;orthogonalLoop=1;jettySize=auto;html=1;entryX=0;entryY=0.5;entryDx=0;entryDy=0;endArrow=none;endFill=0;strokeWidth=5;" parent="1" source="sQp2Zh3F2BZOGlov7ECM-20" edge="1">
          <mxGeometry relative="1" as="geometry">
            <mxPoint x="820" y="275" as="targetPoint" />
          </mxGeometry>
        </mxCell>
        <mxCell id="sQp2Zh3F2BZOGlov7ECM-20" value="" style="ellipse;whiteSpace=wrap;html=1;aspect=fixed;strokeColor=#330000;fillColor=#DAE8FC;strokeWidth=5;" parent="1" vertex="1">
          <mxGeometry x="350" y="250" width="50" height="50" as="geometry" />
        </mxCell>
        <mxCell id="sQp2Zh3F2BZOGlov7ECM-21" value="" style="endArrow=classic;html=1;strokeWidth=5;" parent="1" edge="1">
          <mxGeometry width="50" height="50" relative="1" as="geometry">
            <mxPoint x="-134.5" y="170" as="sourcePoint" />
            <mxPoint x="-134" y="240" as="targetPoint" />
          </mxGeometry>
        </mxCell>
        <mxCell id="sQp2Zh3F2BZOGlov7ECM-32" value="V-20220207&lt;br&gt;hash:10iq76" style="rounded=0;whiteSpace=wrap;html=1;strokeWidth=5;fillColor=#FF00FF;strokeColor=#330000;gradientColor=none;" parent="1" vertex="1">
          <mxGeometry x="315" y="110" width="120" height="60" as="geometry" />
        </mxCell>
        <mxCell id="sQp2Zh3F2BZOGlov7ECM-38" value="" style="endArrow=classic;html=1;strokeWidth=5;" parent="1" edge="1">
          <mxGeometry width="50" height="50" relative="1" as="geometry">
            <mxPoint x="374.5" y="170" as="sourcePoint" />
            <mxPoint x="375" y="240" as="targetPoint" />
          </mxGeometry>
        </mxCell>
        <mxCell id="sQp2Zh3F2BZOGlov7ECM-62" value="V-20220214&lt;br&gt;hash:872kia" style="rounded=0;whiteSpace=wrap;html=1;strokeWidth=5;strokeColor=#330000;gradientColor=none;fillColor=#D5E8D4;" parent="1" vertex="1">
          <mxGeometry x="565" y="110" width="120" height="60" as="geometry" />
        </mxCell>
        <mxCell id="sQp2Zh3F2BZOGlov7ECM-63" value="" style="ellipse;whiteSpace=wrap;html=1;aspect=fixed;strokeColor=#330000;fillColor=#DAE8FC;strokeWidth=5;" parent="1" vertex="1">
          <mxGeometry x="597.5" y="250" width="50" height="50" as="geometry" />
        </mxCell>
        <mxCell id="sQp2Zh3F2BZOGlov7ECM-65" value="" style="endArrow=classic;html=1;strokeWidth=5;" parent="1" edge="1">
          <mxGeometry width="50" height="50" relative="1" as="geometry">
            <mxPoint x="622" y="170" as="sourcePoint" />
            <mxPoint x="622.5" y="240" as="targetPoint" />
          </mxGeometry>
        </mxCell>
        <mxCell id="sQp2Zh3F2BZOGlov7ECM-69" value="" style="ellipse;whiteSpace=wrap;html=1;aspect=fixed;strokeColor=#330000;fillColor=#DAE8FC;strokeWidth=5;" parent="1" vertex="1">
          <mxGeometry x="95" y="250" width="50" height="50" as="geometry" />
        </mxCell>
        <mxCell id="sQp2Zh3F2BZOGlov7ECM-71" value="" style="endArrow=classic;html=1;strokeWidth=5;" parent="1" edge="1">
          <mxGeometry width="50" height="50" relative="1" as="geometry">
            <mxPoint x="120" y="170" as="sourcePoint" />
            <mxPoint x="120.5" y="240" as="targetPoint" />
          </mxGeometry>
        </mxCell>
        <mxCell id="gvp6AJLyiE2rmEpr4Blh-3" value="&lt;font style=&quot;font-size: 18px&quot;&gt;&lt;b&gt;动态配置&lt;/b&gt;&lt;/font&gt;" style="text;html=1;align=center;verticalAlign=middle;resizable=0;points=[];autosize=1;strokeColor=none;fillColor=none;" vertex="1" parent="1">
          <mxGeometry x="-320" y="360" width="90" height="20" as="geometry" />
        </mxCell>
        <mxCell id="gvp6AJLyiE2rmEpr4Blh-9" value="" style="endArrow=none;dashed=1;html=1;strokeWidth=5;dashPattern=1 4;strokeColor=#D9D9D9;startArrow=none;" edge="1" parent="1" source="gvp6AJLyiE2rmEpr4Blh-38">
          <mxGeometry width="50" height="50" relative="1" as="geometry">
            <mxPoint x="-220" y="458" as="sourcePoint" />
            <mxPoint x="860" y="458" as="targetPoint" />
          </mxGeometry>
        </mxCell>
        <mxCell id="gvp6AJLyiE2rmEpr4Blh-10" value="altert table xx" style="rounded=0;whiteSpace=wrap;html=1;strokeWidth=5;fillColor=#67AB9F;" vertex="1" parent="1">
          <mxGeometry x="-210" y="436" width="150" height="40" as="geometry" />
        </mxCell>
        <mxCell id="gvp6AJLyiE2rmEpr4Blh-11" value="&lt;span style=&quot;font-size: 18px&quot;&gt;&lt;b&gt;DB脚本&lt;/b&gt;&lt;/span&gt;" style="text;html=1;align=center;verticalAlign=middle;resizable=0;points=[];autosize=1;strokeColor=none;fillColor=none;" vertex="1" parent="1">
          <mxGeometry x="-315" y="446" width="80" height="20" as="geometry" />
        </mxCell>
        <mxCell id="gvp6AJLyiE2rmEpr4Blh-12" value="" style="endArrow=none;dashed=1;html=1;strokeWidth=5;dashPattern=1 4;strokeColor=#D9D9D9;startArrow=none;" edge="1" parent="1" source="gvp6AJLyiE2rmEpr4Blh-40">
          <mxGeometry width="50" height="50" relative="1" as="geometry">
            <mxPoint x="-220" y="548" as="sourcePoint" />
            <mxPoint x="860" y="548" as="targetPoint" />
          </mxGeometry>
        </mxCell>
        <mxCell id="gvp6AJLyiE2rmEpr4Blh-13" value="无" style="rounded=0;whiteSpace=wrap;html=1;strokeWidth=5;fillColor=#67AB9F;" vertex="1" parent="1">
          <mxGeometry x="-210" y="526" width="150" height="40" as="geometry" />
        </mxCell>
        <mxCell id="gvp6AJLyiE2rmEpr4Blh-14" value="&lt;span style=&quot;font-size: 18px&quot;&gt;&lt;b&gt;接口依赖&lt;/b&gt;&lt;/span&gt;" style="text;html=1;align=center;verticalAlign=middle;resizable=0;points=[];autosize=1;strokeColor=none;fillColor=none;" vertex="1" parent="1">
          <mxGeometry x="-320" y="536" width="90" height="20" as="geometry" />
        </mxCell>
        <mxCell id="gvp6AJLyiE2rmEpr4Blh-15" value="" style="endArrow=none;dashed=1;html=1;strokeWidth=5;dashPattern=1 4;strokeColor=#D9D9D9;startArrow=none;" edge="1" parent="1" source="gvp6AJLyiE2rmEpr4Blh-33">
          <mxGeometry width="50" height="50" relative="1" as="geometry">
            <mxPoint x="-220" y="638" as="sourcePoint" />
            <mxPoint x="860" y="638" as="targetPoint" />
          </mxGeometry>
        </mxCell>
        <mxCell id="gvp6AJLyiE2rmEpr4Blh-17" value="&lt;font style=&quot;font-size: 18px&quot;&gt;&lt;b&gt;其他配置工作&lt;/b&gt;&lt;/font&gt;" style="text;html=1;align=center;verticalAlign=middle;resizable=0;points=[];autosize=1;strokeColor=none;fillColor=none;" vertex="1" parent="1">
          <mxGeometry x="-335" y="626" width="120" height="20" as="geometry" />
        </mxCell>
        <mxCell id="gvp6AJLyiE2rmEpr4Blh-23" value="无" style="rounded=0;whiteSpace=wrap;html=1;strokeWidth=5;fillColor=#FF00FF;" vertex="1" parent="1">
          <mxGeometry x="300" y="350" width="150" height="40" as="geometry" />
        </mxCell>
        <mxCell id="gvp6AJLyiE2rmEpr4Blh-24" value="" style="endArrow=none;dashed=1;html=1;strokeWidth=5;dashPattern=1 4;strokeColor=#D9D9D9;" edge="1" parent="1" target="gvp6AJLyiE2rmEpr4Blh-23">
          <mxGeometry width="50" height="50" relative="1" as="geometry">
            <mxPoint x="-220" y="372" as="sourcePoint" />
            <mxPoint x="860" y="372" as="targetPoint" />
          </mxGeometry>
        </mxCell>
        <mxCell id="gvp6AJLyiE2rmEpr4Blh-25" value="{&quot;posId&quot;:7,ratio:0.7}" style="rounded=0;whiteSpace=wrap;html=1;strokeWidth=5;fillColor=#D5E8D4;" vertex="1" parent="1">
          <mxGeometry x="560" y="350" width="150" height="40" as="geometry" />
        </mxCell>
        <mxCell id="gvp6AJLyiE2rmEpr4Blh-26" value="" style="endArrow=none;dashed=1;html=1;strokeWidth=5;dashPattern=1 4;strokeColor=#D9D9D9;startArrow=none;" edge="1" parent="1" source="gvp6AJLyiE2rmEpr4Blh-23" target="gvp6AJLyiE2rmEpr4Blh-25">
          <mxGeometry width="50" height="50" relative="1" as="geometry">
            <mxPoint x="450" y="370.30927835051557" as="sourcePoint" />
            <mxPoint x="860" y="372" as="targetPoint" />
          </mxGeometry>
        </mxCell>
        <mxCell id="gvp6AJLyiE2rmEpr4Blh-19" value="{&quot;ownerId&quot;:10038987}" style="rounded=0;whiteSpace=wrap;html=1;strokeWidth=5;fillColor=#E3C800;" vertex="1" parent="1">
          <mxGeometry x="45" y="350" width="150" height="40" as="geometry" />
        </mxCell>
        <mxCell id="gvp6AJLyiE2rmEpr4Blh-2" value="无" style="rounded=0;whiteSpace=wrap;html=1;strokeWidth=5;fillColor=#67AB9F;" vertex="1" parent="1">
          <mxGeometry x="-210" y="350" width="150" height="40" as="geometry" />
        </mxCell>
        <mxCell id="gvp6AJLyiE2rmEpr4Blh-34" value="" style="endArrow=none;dashed=1;html=1;strokeWidth=5;dashPattern=1 4;strokeColor=#D9D9D9;" edge="1" parent="1" target="gvp6AJLyiE2rmEpr4Blh-33">
          <mxGeometry width="50" height="50" relative="1" as="geometry">
            <mxPoint x="-220" y="638" as="sourcePoint" />
            <mxPoint x="860" y="638" as="targetPoint" />
          </mxGeometry>
        </mxCell>
        <mxCell id="gvp6AJLyiE2rmEpr4Blh-39" value="" style="endArrow=none;dashed=1;html=1;strokeWidth=5;dashPattern=1 4;strokeColor=#D9D9D9;" edge="1" parent="1" target="gvp6AJLyiE2rmEpr4Blh-38">
          <mxGeometry width="50" height="50" relative="1" as="geometry">
            <mxPoint x="-220" y="458" as="sourcePoint" />
            <mxPoint x="860" y="458" as="targetPoint" />
          </mxGeometry>
        </mxCell>
        <mxCell id="gvp6AJLyiE2rmEpr4Blh-41" value="" style="endArrow=none;dashed=1;html=1;strokeWidth=5;dashPattern=1 4;strokeColor=#D9D9D9;" edge="1" parent="1" target="gvp6AJLyiE2rmEpr4Blh-40">
          <mxGeometry width="50" height="50" relative="1" as="geometry">
            <mxPoint x="-220" y="548" as="sourcePoint" />
            <mxPoint x="860" y="548" as="targetPoint" />
          </mxGeometry>
        </mxCell>
        <mxCell id="gvp6AJLyiE2rmEpr4Blh-16" value="无" style="rounded=0;whiteSpace=wrap;html=1;strokeWidth=5;fillColor=#67AB9F;" vertex="1" parent="1">
          <mxGeometry x="-210" y="616" width="150" height="40" as="geometry" />
        </mxCell>
        <mxCell id="gvp6AJLyiE2rmEpr4Blh-28" value="update xxx" style="rounded=0;whiteSpace=wrap;html=1;strokeWidth=5;fillColor=#E3C800;" vertex="1" parent="1">
          <mxGeometry x="45" y="436" width="150" height="40" as="geometry" />
        </mxCell>
        <mxCell id="gvp6AJLyiE2rmEpr4Blh-29" value="无" style="rounded=0;whiteSpace=wrap;html=1;strokeWidth=5;fillColor=#E3C800;" vertex="1" parent="1">
          <mxGeometry x="45" y="526" width="150" height="40" as="geometry" />
        </mxCell>
        <mxCell id="gvp6AJLyiE2rmEpr4Blh-33" value="无" style="rounded=0;whiteSpace=wrap;html=1;strokeWidth=5;fillColor=#E3C800;" vertex="1" parent="1">
          <mxGeometry x="40" y="616" width="150" height="40" as="geometry" />
        </mxCell>
        <mxCell id="gvp6AJLyiE2rmEpr4Blh-35" value="无" style="rounded=0;whiteSpace=wrap;html=1;strokeWidth=5;fillColor=#FF00FF;" vertex="1" parent="1">
          <mxGeometry x="300" y="436" width="150" height="40" as="geometry" />
        </mxCell>
        <mxCell id="gvp6AJLyiE2rmEpr4Blh-36" value="CPD callback interface" style="rounded=0;whiteSpace=wrap;html=1;strokeWidth=5;fillColor=#FF00FF;" vertex="1" parent="1">
          <mxGeometry x="300" y="526" width="150" height="40" as="geometry" />
        </mxCell>
        <mxCell id="gvp6AJLyiE2rmEpr4Blh-37" value="无" style="rounded=0;whiteSpace=wrap;html=1;strokeWidth=5;fillColor=#FF00FF;" vertex="1" parent="1">
          <mxGeometry x="300" y="616" width="150" height="40" as="geometry" />
        </mxCell>
        <mxCell id="gvp6AJLyiE2rmEpr4Blh-38" value="无" style="rounded=0;whiteSpace=wrap;html=1;strokeWidth=5;fillColor=#D5E8D4;" vertex="1" parent="1">
          <mxGeometry x="560" y="436" width="150" height="40" as="geometry" />
        </mxCell>
        <mxCell id="gvp6AJLyiE2rmEpr4Blh-40" value="无" style="rounded=0;whiteSpace=wrap;html=1;strokeWidth=5;fillColor=#D5E8D4;" vertex="1" parent="1">
          <mxGeometry x="560" y="526" width="150" height="40" as="geometry" />
        </mxCell>
        <mxCell id="gvp6AJLyiE2rmEpr4Blh-42" value="无" style="rounded=0;whiteSpace=wrap;html=1;strokeWidth=5;fillColor=#D5E8D4;" vertex="1" parent="1">
          <mxGeometry x="560" y="616" width="150" height="40" as="geometry" />
        </mxCell>
        <mxCell id="gvp6AJLyiE2rmEpr4Blh-43" value="altert table xx" style="rounded=0;whiteSpace=wrap;html=1;strokeWidth=5;fillColor=#67AB9F;" vertex="1" parent="1">
          <mxGeometry x="-210" y="436" width="150" height="40" as="geometry" />
        </mxCell>
        <mxCell id="gvp6AJLyiE2rmEpr4Blh-44" value="无" style="rounded=0;whiteSpace=wrap;html=1;strokeWidth=5;fillColor=#67AB9F;" vertex="1" parent="1">
          <mxGeometry x="-210" y="526" width="150" height="40" as="geometry" />
        </mxCell>
      </root>
    </mxGraphModel>
  </diagram>
</mxfile>
